HIERARCHY
ROOT Hips
{
	OFFSET 53.452702 -8.470023 84.469398
	CHANNELS 6 Xposition Yposition Zposition Xrotation Yrotation Zrotation
	JOINT spine
	{
		OFFSET 0.000000 -0.342408 5.954384
		CHANNELS 3 Xrotation Yrotation Zrotation
		JOINT spine1
		{
			OFFSET 0.000000 -0.000002 8.856018
			CHANNELS 3 Xrotation Yrotation Zrotation
			JOINT spine2
			{
				OFFSET 0.000000 -0.000001 8.485672
				CHANNELS 3 Xrotation Yrotation Zrotation
				JOINT Neck
				{
					OFFSET 0.000000 -1.038704 21.786301
					CHANNELS 3 Xrotation Yrotation Zrotation
					JOINT Head
					{
						OFFSET 0.000000 -0.000001 6.582199
						CHANNELS 3 Xrotation Yrotation Zrotation
						End Site
						{
							OFFSET 0.000000 5.254357 15.932602
						}
					}
				}
				JOINT RightShoulder
				{
					OFFSET -3.573071 0.497523 9.163864
					CHANNELS 3 Xrotation Yrotation Zrotation
					JOINT RightArm
					{
						OFFSET 0.000000 -0.000002 12.019196
						CHANNELS 3 Xrotation Yrotation Zrotation
						JOINT RightArmRoll
						{
							OFFSET 0.000000 -0.000001 6.067535
							CHANNELS 3 Xrotation Yrotation Zrotation
							JOINT RightForeArm
							{
								OFFSET 0.000000 -0.000003 17.672592
								CHANNELS 3 Xrotation Yrotation Zrotation
								JOINT RightForeArmRoll
								{
									OFFSET 0.000000 -0.000001 6.808716
									CHANNELS 3 Xrotation Yrotation Zrotation
									JOINT RightHand
									{
										OFFSET 0.000000 -0.000003 13.663605
										CHANNELS 3 Xrotation Yrotation Zrotation
										End Site
										{
											OFFSET 0.000000 0.000000 0.100006
										}
									}
								}
							}
						}
					}
				}
				JOINT LeftShoulder
				{
					OFFSET 3.573071 0.497523 9.163864
					CHANNELS 3 Xrotation Yrotation Zrotation
					JOINT LeftArm
					{
						OFFSET 0.000000 -0.000002 12.019196
						CHANNELS 3 Xrotation Yrotation Zrotation
						JOINT LeftArmRoll
						{
							OFFSET 0.000000 -0.000001 6.067551
							CHANNELS 3 Xrotation Yrotation Zrotation
							JOINT LeftForeArm
							{
								OFFSET 0.000000 -0.000003 17.672607
								CHANNELS 3 Xrotation Yrotation Zrotation
								JOINT LeftForeArmRoll
								{
									OFFSET 0.000000 -0.000001 6.808716
									CHANNELS 3 Xrotation Yrotation Zrotation
									JOINT LeftHand
									{
										OFFSET 0.000000 -0.000003 13.663605
										CHANNELS 3 Xrotation Yrotation Zrotation
										End Site
										{
											OFFSET 0.000000 0.000000 0.100006
										}
									}
								}
							}
						}
					}
				}
			}
		}
	}
	JOINT RightUpLeg
	{
		OFFSET -5.277740 0.811858 -0.967796
		CHANNELS 3 Xrotation Yrotation Zrotation
		JOINT RightUpLegRoll
		{
			OFFSET 0.000000 -0.000002 16.021400
			CHANNELS 3 Xrotation Yrotation Zrotation
			JOINT RightLeg
			{
				OFFSET 0.000000 0.000003 -19.840096
				CHANNELS 3 Xrotation Yrotation Zrotation
				JOINT RightLegRoll
				{
					OFFSET 0.000000 -0.000003 19.904999
					CHANNELS 3 Xrotation Yrotation Zrotation
					JOINT RightFoot
					{
						OFFSET 0.000000 -0.000003 16.567497
						CHANNELS 3 Xrotation Yrotation Zrotation
						JOINT RightToeBase
						{
							OFFSET 0.000000 -0.000002 13.849602
							CHANNELS 3 Xrotation Yrotation Zrotation
							End Site
							{
								OFFSET 0.005871 0.773116 6.707275
							}
						}
					}
				}
			}
		}
	}
	JOINT LeftUpLeg
	{
		OFFSET 5.277740 0.811858 -0.967796
		CHANNELS 3 Xrotation Yrotation Zrotation
		JOINT LeftUpLegRoll
		{
			OFFSET 0.000000 -0.000002 16.021500
			CHANNELS 3 Xrotation Yrotation Zrotation
			JOINT LeftLeg
			{
				OFFSET 0.000000 -0.000003 19.839996
				CHANNELS 3 Xrotation Yrotation Zrotation
				JOINT LeftLegRoll
				{
					OFFSET 0.000000 -0.000003 20.089005
					CHANNELS 3 Xrotation Yrotation Zrotation
					JOINT LeftFoot
					{
						OFFSET 0.000000 -0.000002 16.383499
						CHANNELS 3 Xrotation Yrotation Zrotation
						JOINT LeftToeBase
						{
							OFFSET 0.000000 -0.000002 13.849594
							CHANNELS 3 Xrotation Yrotation Zrotation
							End Site
							{
								OFFSET -0.026310 0.773116 6.707275
							}
						}
					}
				}
			}
		}
	}
}
MOTION
Frames: 13
Frame Time: 0.041667
53.334106 -6.149652 84.418900 -9.538691 0.690593 -2.614127 -0.408406 -0.296505 0.067842 3.159122 -0.579773 0.148614 4.804216 -0.578011 0.153776 16.497326 4.492441 -1.514328 2.348591 -6.980739 -1.188876 5.401933 -75.736320 3.932446 -54.104968 -110.610979 -55.750716 -0.000001 -0.000003 0.000001 -0.014127 3.637881 -1.990853 0.000000 0.000003 -3.011609 -5.000172 -7.999928 0.000007 -2.953313 67.437818 4.277237 -34.522508 118.529218 44.073056 0.000002 0.000011 0.000007 -0.026731 -3.638110 1.990772 -0.000005 -0.000010 3.011615 -5.000142 7.999920 0.000001 3.231411 -179.053518 3.687825 179.999991 -0.000007 -1.195005 170.700566 -2.540225 -0.544813 -0.000004 0.000003 0.134994 69.457608 6.882663 2.114871 25.456962 -7.355615 0.000000 3.991104 178.561499 -0.934850 -0.000005 -0.000004 -1.203220 -10.970598 2.254094 0.524432 -0.000003 -0.000004 -0.187668 70.705224 -6.842501 -2.136890 25.456959 7.355614 -0.000000 
53.335613 -6.150965 84.420998 -9.536097 0.689426 -2.613175 -0.408365 -0.295748 0.067842 3.160164 -0.579145 0.148614 4.805265 -0.577384 0.153777 16.461480 4.491120 -1.510740 2.385545 -6.980216 -1.184369 5.362881 -75.732980 3.890968 -54.117768 -110.613691 -55.763150 -0.000003 -0.000003 0.000001 -0.014126 3.637881 -1.990853 0.000001 0.000002 -3.011610 -5.000172 -7.999929 0.000007 -2.950676 67.447483 4.275211 -34.527969 118.515052 44.066748 0.000003 0.000011 0.000007 -0.026726 -3.638111 1.990773 -0.000004 -0.000011 3.011620 -5.000141 7.999918 0.000000 3.225434 -179.051497 3.688098 179.999991 -0.000007 -1.195004 170.693053 -2.540170 -0.545144 -0.000004 0.000003 0.134994 69.461193 6.882642 2.114945 25.456965 -7.355613 -0.000001 3.986264 178.562482 -0.934200 -0.000005 -0.000004 -1.203230 -10.973605 2.254817 0.524411 -0.000003 -0.000004 -0.187668 70.705852 -6.842472 -2.136947 25.456962 7.355615 -0.000000 
53.334709 -6.148253 84.419601 -9.533537 0.688149 -2.612141 -0.408312 -0.294957 0.067842 3.161262 -0.578456 0.148614 4.806365 -0.576695 0.153776 16.424322 4.489720 -1.507047 2.423813 -6.979752 -1.179710 5.322318 -75.729477 3.847908 -54.128788 -110.617140 -55.774328 -0.000002 -0.000003 0.000001 -0.014124 3.637881 -1.990854 -0.000000 0.000002 -3.011610 -5.000173 -7.999928 0.000007 -2.947514 67.457551 4.272638 -34.534475 118.500053 44.061318 0.000003 0.000011 0.000006 -0.026726 -3.638111 1.990772 -0.000004 -0.000010 3.011618 -5.000143 7.999920 -0.000001 3.219434 -179.048505 3.688567 179.999991 -0.000008 -1.195005 170.685403 -2.539117 -0.544324 -0.000004 0.000003 0.134995 69.464909 6.882663 2.114917 25.456969 -7.355617 0.000000 3.981426 178.564463 -0.933368 -0.000005 -0.000004 -1.203250 -10.976613 2.255501 0.524382 -0.000003 -0.000004 -0.187668 70.706494 -6.842477 -2.136907 25.456962 7.355614 -0.000001 
53.335407 -6.145885 84.420593 -9.531002 0.686791 -2.611061 -0.408238 -0.294140 0.067842 3.162412 -0.577727 0.148614 4.807514 -0.575965 0.153777 16.386262 4.488271 -1.503283 2.463013 -6.979320 -1.174947 5.280770 -75.725775 3.803809 -54.137985 -110.621327 -55.783999 -0.000002 -0.000003 0.000002 -0.014127 3.637882 -1.990853 -0.000000 0.000003 -3.011609 -5.000172 -7.999928 0.000006 -2.944019 67.467926 4.269725 -34.540127 118.485928 44.054573 0.000004 0.000011 0.000007 -0.026731 -3.638110 1.990773 -0.000005 -0.000010 3.011621 -5.000141 7.999919 0.000001 3.213398 -179.045500 3.689115 179.999991 -0.000007 -1.195004 170.677616 -2.538077 -0.544506 -0.000004 0.000002 0.134993 69.468707 6.882653 2.114879 25.456965 -7.355617 0.000001 3.976613 178.565460 -0.932527 -0.000005 -0.000004 -1.203270 -10.979620 2.256166 0.524349 -0.000003 -0.000004 -0.187668 70.707027 -6.842481 -2.136877 25.456959 7.355615 -0.000000 
53.344307 -6.144398 84.420296 -9.528466 0.685388 -2.609948 -0.408160 -0.293309 0.067842 3.163572 -0.576973 0.148614 4.808673 -0.575210 0.153776 16.347701 4.486785 -1.499478 2.502736 -6.978912 -1.170128 5.238685 -75.721984 3.759137 -54.149518 -110.625022 -55.796413 -0.000000 -0.000003 0.000001 -0.014125 3.637882 -1.990854 0.000000 0.000002 -3.011610 -5.000172 -7.999930 0.000006 -2.940340 67.478506 4.266611 -34.547018 118.471038 44.049184 0.000004 0.000011 0.000008 -0.026732 -3.638111 1.990774 -0.000004 -0.000010 3.011619 -5.000143 7.999920 0.000001 3.207360 -179.042508 3.689722 179.999991 -0.000007 -1.195004 170.669775 -2.537036 -0.544691 -0.000004 0.000003 0.134993 69.472518 6.882644 2.114942 25.456967 -7.355618 -0.000000 3.971808 178.567441 -0.931574 -0.000005 -0.000004 -1.203300 -10.982628 2.256801 0.524310 -0.000003 -0.000004 -0.187668 70.707553 -6.842486 -2.136945 25.456962 7.355614 -0.000001 
53.340706 -6.144412 84.419899 -9.525944 0.683976 -2.608826 -0.408081 -0.292476 0.067842 3.164741 -0.576212 0.148614 4.809842 -0.574450 0.153776 16.308936 4.485299 -1.495664 2.542591 -6.978510 -1.165295 5.196420 -75.718186 3.714272 -54.158875 -110.629298 -55.806587 -0.000001 -0.000003 0.000002 -0.014126 3.637882 -1.990853 -0.000000 0.000003 -3.011610 -5.000174 -7.999930 0.000007 -2.936590 67.489181 4.263427 -34.553736 118.456094 44.043437 0.000005 0.000011 0.000008 -0.026730 -3.638111 1.990771 -0.000005 -0.000010 3.011621 -5.000142 7.999918 0.000001 3.201314 -179.038506 3.690393 179.999991 -0.000007 -1.195004 170.661907 -2.535994 -0.544880 -0.000004 0.000002 0.134994 69.476315 6.882633 2.115003 25.456962 -7.355617 -0.000000 3.967004 178.569449 -0.930609 -0.000005 -0.000004 -1.203330 -10.985535 2.257436 0.524267 -0.000003 -0.000004 -0.187668 70.708188 -6.842457 -2.136900 25.456960 7.355614 -0.000001 
53.345707 -6.144981 84.417290 -9.523411 0.682584 -2.607730 -0.408001 -0.291648 0.067842 3.165902 -0.575464 0.148614 4.811002 -0.573701 0.153777 16.270475 4.483813 -1.491874 2.582191 -6.978087 -1.160492 5.154500 -75.714375 3.669774 -54.168065 -110.633492 -55.816456 -0.000001 -0.000003 0.000001 -0.014128 3.637882 -1.990854 0.000001 0.000003 -3.011609 -5.000174 -7.999928 0.000006 -2.932918 67.499665 4.260328 -34.560641 118.441204 44.038072 0.000003 0.000011 0.000006 -0.026727 -3.638111 1.990774 -0.000005 -0.000011 3.011619 -5.000143 7.999921 0.000003 3.195277 -179.035500 3.690990 179.999991 -0.000007 -1.195005 170.654080 -2.534954 -0.545064 -0.000004 0.000003 0.134993 69.480140 6.882657 2.114871 25.456964 -7.355615 0.000000 3.962202 178.570433 -0.929737 -0.000005 -0.000004 -1.203350 -10.988542 2.258081 0.524231 -0.000003 -0.000004 -0.187668 70.708727 -6.842495 -2.136872 25.456962 7.355615 -0.000000 
53.348106 -6.142034 84.419601 -9.520871 0.681250 -2.606655 -0.407937 -0.290839 0.067842 3.167030 -0.574746 0.148614 4.812130 -0.572983 0.153777 16.232619 4.482367 -1.488136 2.621116 -6.977633 -1.155764 5.113359 -75.710748 3.626094 -54.179403 -110.637098 -55.828276 -0.000001 -0.000003 0.000001 -0.014129 3.637881 -1.990853 -0.000000 0.000003 -3.011611 -5.000173 -7.999930 0.000006 -2.929517 67.510027 4.257505 -34.566324 118.427093 44.031446 0.000004 0.000011 0.000007 -0.026730 -3.638110 1.990772 -0.000003 -0.000010 3.011618 -5.000143 7.999920 0.000002 3.189257 -179.032509 3.691516 179.999991 -0.000008 -1.195005 170.646320 -2.533899 -0.544233 -0.000004 0.000002 0.134994 69.483842 6.882677 2.114846 25.456960 -7.355616 0.000000 3.957386 178.572400 -0.928851 -0.000005 -0.000004 -1.203380 -10.991449 2.258746 0.524194 -0.000003 -0.000004 -0.187668 70.709260 -6.842499 -2.136943 25.456957 7.355614 -0.000001 
53.342606 -6.143005 84.420494 -9.518300 0.680005 -2.605646 -0.407884 -0.290058 0.067842 3.168110 -0.574075 0.148614 4.813221 -0.572313 0.153777 16.195861 4.480980 -1.484494 2.658995 -6.977123 -1.151156 5.073361 -75.707190 3.583630 -54.190222 -110.640479 -55.839054 -0.000000 -0.000003 0.000001 -0.014124 3.637881 -1.990853 0.000002 0.000002 -3.011610 -5.000173 -7.999929 0.000007 -2.926505 67.519985 4.255088 -34.571843 118.412913 44.024978 0.000004 0.000011 0.000005 -0.026732 -3.638110 1.990773 -0.000004 -0.000010 3.011621 -5.000142 7.999920 0.000003 3.183257 -179.030501 3.691886 179.999991 -0.000007 -1.195006 170.638712 -2.532860 -0.544406 -0.000004 0.000003 0.134993 69.487544 6.882659 2.114912 25.456965 -7.355615 -0.000000 3.952539 178.574408 -0.928055 -0.000005 -0.000004 -1.203390 -10.994458 2.259439 0.524167 -0.000003 -0.000004 -0.187668 70.709895 -6.842471 -2.136899 25.456962 7.355614 -0.000000 
53.365108 -6.120314 84.410393 -9.515698 0.678886 -2.604724 -0.407852 -0.289316 0.067842 3.169140 -0.573473 0.148613 4.814240 -0.571709 0.153777 16.160617 4.479663 -1.480973 2.695412 -6.976559 -1.146719 5.035018 -75.703877 3.542903 -54.202838 -110.643115 -55.851051 -0.000002 -0.000003 0.000001 -0.014126 3.637881 -1.990853 -0.000000 0.000002 -3.011610 -5.000174 -7.999929 0.000007 -2.924034 67.529445 4.253237 -34.577174 118.398693 44.018660 0.000005 0.000011 0.000007 -0.026730 -3.638111 1.990775 -0.000003 -0.000010 3.011619 -5.000143 7.999919 0.000003 3.177291 -179.027495 3.692162 179.999991 -0.000007 -1.195005 170.631280 -2.532806 -0.544734 -0.000004 0.000002 0.134994 69.491137 6.882639 2.114984 25.456967 -7.355616 -0.000001 3.947687 178.575391 -0.927449 -0.000005 -0.000004 -1.203400 -10.997566 2.260181 0.524154 -0.000003 -0.000004 -0.187668 70.710531 -6.842475 -2.136858 25.456962 7.355615 0.000000 
53.359409 -6.123814 84.411011 -9.513052 0.677924 -2.603898 -0.407847 -0.288623 0.067842 3.170080 -0.572954 0.148613 4.815190 -0.571189 0.153777 16.127077 4.478438 -1.477591 2.729985 -6.975913 -1.142482 4.998695 -75.700831 3.504313 -54.217096 -110.644919 -55.863899 -0.000003 -0.000003 0.000001 -0.014127 3.637881 -1.990853 -0.000001 0.000003 -3.011610 -5.000175 -7.999930 0.000006 -2.922245 67.538283 4.252086 -34.581118 118.385183 44.011338 0.000005 0.000011 0.000006 -0.026730 -3.638110 1.990775 -0.000004 -0.000010 3.011617 -5.000142 7.999919 -0.000000 3.171372 -179.025487 3.692201 179.999991 -0.000008 -1.195005 170.624109 -2.530786 -0.544728 -0.000004 0.000003 0.134995 69.494525 6.882679 2.114881 25.456962 -7.355615 0.000000 3.942795 178.576375 -0.926999 -0.000005 -0.000004 -1.203410 -11.000575 2.260993 0.524151 -0.000003 -0.000004 -0.187668 70.711173 -6.842480 -2.136921 25.456960 7.355613 -0.000001 
53.343208 -6.140502 84.419792 -9.510361 0.677154 -2.603189 -0.407879 -0.287990 0.067842 3.170930 -0.572537 0.148614 4.816039 -0.570773 0.153776 16.095850 4.477344 -1.474401 2.762311 -6.975166 -1.138512 4.964934 -75.698222 3.468420 -54.232809 -110.645827 -55.877241 -0.000004 -0.000004 0.000001 -0.014127 3.637882 -1.990853 0.000001 0.000002 -3.011610 -5.000171 -7.999929 0.000007 -2.921307 67.546404 4.251827 -34.584714 118.371577 44.004296 0.000004 0.000011 0.000005 -0.026728 -3.638111 1.990774 -0.000002 -0.000011 3.011620 -5.000143 7.999918 0.000003 3.165490 -179.023493 3.692022 179.999991 -0.000008 -1.195005 170.617210 -2.529738 -0.544868 -0.000004 0.000002 0.134994 69.497796 6.882644 2.114973 25.456962 -7.355617 0.000001 3.937868 178.577372 -0.926738 -0.000005 -0.000004 -1.203400 -11.003683 2.261862 0.524162 -0.000003 -0.000004 -0.187668 70.711815 -6.842485 -2.136882 25.456962 7.355614 -0.000001 
53.352409 -6.133452 84.417099 -9.507599 0.676609 -2.602634 -0.407941 -0.287429 0.067842 3.171669 -0.572242 0.148614 4.816769 -0.570477 0.153777 16.067233 4.476389 -1.471424 2.791985 -6.974303 -1.134833 4.934103 -75.695954 3.435611 -54.249785 -110.645759 -55.890666 -0.000002 -0.000003 0.000001 -0.014125 3.637882 -1.990853 -0.000001 0.000003 -3.011610 -5.000174 -7.999930 0.000007 -2.921344 67.553713 4.252582 -34.586883 118.358695 43.996445 0.000005 0.000011 0.000006 -0.026728 -3.638111 1.990775 -0.000003 -0.000011 3.011621 -5.000143 7.999921 0.000003 3.159683 -179.021485 3.691573 179.999991 -0.000007 -1.195004 170.610640 -2.528706 -0.544994 -0.000004 0.000003 0.134993 69.500877 6.882668 2.114886 25.456965 -7.355614 0.000001 3.932899 178.577359 -0.926767 -0.000005 -0.000004 -1.203370 -11.006894 2.262829 0.524198 -0.000003 -0.000004 -0.187668 70.712559 -6.842491 -2.136837 25.456967 7.355614 -0.000001 
